<svg viewBox="0 0 24 24" fill="none" xmlns="http://www.w3.org/2000/svg">
  <path fill-rule="evenodd" clip-rule="evenodd" d="M12.4355 4.70323L11.9952 5.4629L11.5645 4.70323C11.2887 4.22903 10.6887 4.06935 10.2145 4.34032C9.74032 4.61613 9.58065 5.21613 9.85161 5.69032L10.8581 7.4371L7.63548 13.021H5.11935C4.57258 13.021 4.13226 13.4613 4.13226 14.0081C4.13226 14.5548 4.57258 14.9952 5.11935 14.9952H14.0952C14.5258 14.1871 13.9694 13.021 12.9774 13.021H9.91452L14.1484 5.69032C14.4194 5.21613 14.2597 4.61129 13.7855 4.34032C13.3113 4.06935 12.7065 4.22903 12.4355 4.70323ZM7.23871 17.6565L8.1871 16.0113C7.67419 15.3919 7.02581 15.2032 6.23226 15.45L5.52581 16.6694C5.25484 17.1435 5.41452 17.7484 5.88871 18.0194C6.3629 18.2903 6.96774 18.1306 7.23871 17.6565ZM18.929 13.0258H16.3597L16.0994 12.5744C14.937 10.5587 14.0557 9.0304 13.4516 7.99355C12.8661 8.47742 12.2758 9.90968 13.1032 11.3371C13.4838 11.998 13.9557 12.8146 14.5178 13.7874C15.1491 14.8799 15.8941 16.1693 16.7516 17.6565C17.0274 18.1306 17.6274 18.2903 18.1016 18.0194C18.5758 17.7435 18.7355 17.1435 18.4645 16.6694L17.5016 15H18.929C19.4758 15 19.9161 14.5597 19.9161 14.0129C19.9161 13.4661 19.4758 13.0258 18.929 13.0258ZM0 12C0 5.37097 5.37097 0 12 0C18.629 0 24 5.37097 24 12C24 18.629 18.629 24 12 24C5.37097 24 0 18.629 0 12ZM12 22.4516C17.8016 22.4516 22.4516 17.7435 22.4516 12C22.4516 6.19839 17.7435 1.54839 12 1.54839C6.19839 1.54839 1.54839 6.25645 1.54839 12C1.54839 17.8016 6.25645 22.4516 12 22.4516Z" fill="currentColor"/>
</svg>
