<svg viewBox="0 0 25 24" xmlns="http://www.w3.org/2000/svg">
  <path fill-rule="evenodd" clip-rule="evenodd" d="M24.9209 11.7674C24.9209 17.1158 21.6403 21.6926 16.8016 23.2937C16.1871 23.4046 15.9645 23.0236 15.9645 22.7102C15.9645 22.5795 15.9661 22.2726 15.9682 21.8615C15.9725 21.0282 15.979 19.7668 15.979 18.6784C15.979 17.545 15.6016 16.8216 15.1564 16.4406C17.8613 16.1368 20.7113 15.7655 20.7113 11.1115C20.7113 9.79011 20.2371 9.12458 19.4629 8.27096C19.5887 7.95748 20 6.66981 19.3371 4.99633C18.3258 4.67803 15.9984 6.29847 15.9984 6.29847C15.0306 6.02839 13.9903 5.88854 12.9597 5.88854C11.929 5.88854 10.8887 6.02839 9.92094 6.29847C9.92094 6.29847 7.59352 4.68286 6.58223 4.99633C5.91933 6.66499 6.33062 7.95748 6.45643 8.27096C5.68223 9.11975 5.31449 9.78529 5.31449 11.1115C5.31449 15.751 8.04352 16.1416 10.7484 16.4406C10.4 16.7589 10.0855 17.2943 9.97417 18.0659C9.28223 18.3842 7.50643 18.9195 6.44675 17.0579C5.78385 15.9101 4.57901 15.8137 4.57901 15.8137C3.39352 15.7992 4.50159 16.5564 4.50159 16.5564C5.29514 16.9181 5.84675 18.3215 5.84675 18.3215C6.55804 20.4821 9.94514 19.7587 9.94514 19.7587C9.94514 20.4149 9.95123 21.3383 9.95552 21.9886C9.95785 22.3419 9.95965 22.6145 9.95965 22.7198C9.95965 23.0333 9.74191 23.4143 9.12256 23.3034C4.29836 21.6926 0.920944 17.1158 0.920944 11.7674C0.920944 5.07832 6.05482 0 12.7661 0C19.4774 0 24.9209 5.07832 24.9209 11.7674ZM8.69675 18.9533C8.83707 18.9533 8.94836 18.8761 8.94836 18.7797C8.94836 18.6687 8.82256 18.5916 8.6774 18.606C8.53707 18.606 8.42578 18.6832 8.42578 18.7797C8.42578 18.8906 8.53707 18.9677 8.69675 18.9533ZM7.65159 18.7989C7.50643 18.77 7.40965 18.6591 7.44352 18.5626C7.4774 18.4662 7.61772 18.4179 7.74352 18.4517C7.88869 18.4951 7.98062 18.606 7.95159 18.7025C7.92256 18.7989 7.7774 18.8472 7.65159 18.7989ZM9.35965 18.717C9.34514 18.606 9.44191 18.5144 9.58223 18.4806C9.72256 18.4662 9.8532 18.5289 9.86772 18.6205C9.88223 18.717 9.78546 18.8086 9.64514 18.8423C9.49998 18.8761 9.37417 18.8134 9.35965 18.717ZM5.65804 16.8843C5.57578 16.7927 5.56127 16.6818 5.62417 16.6335C5.68707 16.5708 5.79836 16.6046 5.87578 16.6818C5.95804 16.7734 5.97256 16.8843 5.90965 16.9326C5.84675 16.9952 5.73546 16.9615 5.65804 16.8843ZM5.21288 16.431C5.11611 16.3828 5.06772 16.3056 5.10159 16.2429C5.13546 16.1947 5.21288 16.1802 5.30965 16.2091C5.40643 16.2574 5.45481 16.3345 5.42094 16.3972C5.38707 16.4647 5.2903 16.4792 5.21288 16.431ZM6.73223 18.2588C6.62094 18.1672 6.59191 18.0225 6.66933 17.9598C6.73223 17.8826 6.8774 17.8971 6.98385 18.008C7.08062 18.0996 7.10965 18.2443 7.04675 18.307C6.98385 18.3842 6.84352 18.3697 6.73223 18.2588ZM6.11772 17.5354C6.0403 17.4245 6.0403 17.2991 6.11772 17.2509C6.19514 17.1882 6.32094 17.2364 6.38869 17.3473C6.46611 17.4582 6.46611 17.5836 6.38869 17.6463C6.32578 17.6945 6.19514 17.6463 6.11772 17.5354Z" fill="currentColor" />
</svg>
