<svg viewBox="0 0 24 24" fill="none" xmlns="http://www.w3.org/2000/svg">
  <path fill-rule="evenodd" clip-rule="evenodd" d="M0 12C0 5.373 5.373 0 12 0C18.627 0 24 5.373 24 12C24 18.627 18.627 24 12 24C5.373 24 0 18.627 0 12ZM7.8465 21.645C9.12 22.1955 10.524 22.5 12 22.5L12.0015 22.4985C14.9415 22.4985 17.598 21.2895 19.5045 19.3425C19.5075 19.302 19.5135 19.26 19.524 19.2195C20.628 14.868 20.0445 11.706 19.7205 10.4925C19.6455 10.497 19.5705 10.4985 19.497 10.4985C18.3165 10.4985 17.172 10.0335 16.3185 9.18C15.468 8.331 15 7.2 15 5.9985C15 4.797 15.468 3.6675 16.3185 2.817C16.4085 2.727 16.503 2.6415 16.6005 2.559C15.2115 1.881 13.65 1.5 12 1.5C10.9575 1.5 9.951 1.6515 9 1.935V3.75C9 3.9495 8.922 4.14 8.781 4.281L5.781 7.281C5.64 7.4205 5.4495 7.5 5.25 7.5H2.511C1.863 8.8635 1.5 10.389 1.5 12C1.5 15.5685 3.2805 18.72 6 20.6175V16.2135L3.414 14.9205C3.1605 14.7945 3 14.5335 3 14.25V9.75C3 9.336 3.336 9 3.75 9H6.75C6.9495 9 7.14 9.078 7.281 9.219C7.308 9.2475 10.1025 12 12.75 12C13.164 12 13.5 12.336 13.5 12.75V15C13.5 15.183 13.4325 15.36 13.311 15.498L7.8465 21.645Z" fill="white"/>
</svg>
